PathFileType	4	(X/Y/Z)	D:\TRACE\v60_Jaco2_6-2-23\BothDRS_Motion1_1-platform.trc
DataRate	CameraRate	NumFrames	NumMarkers	Units	OrigDataRate	OrigDataStartFrame	OrigNumFrames
100.00	100.00	      61	5	mm	100.00	858	      6857
Frame#	Time	Left_Front			Right_Front			Left_Aft			Right_Aft			Post			
		X1	Y1	Z1	X2	Y2	Z2	X3	Y3	Z3	X4	Y4	Z4	X5	Y5	Z5	

858	8.570	-833.75153	35.62623	-631.69971	736.43146	36.24458	-636.81537	-741.49646	-10.64886	502.66708	700.93658	-12.39760	512.10028	-46.81752	1346.28699	-903.61865	
859	8.580	-833.10120	35.24227	-631.66779	737.13812	36.03085	-636.89642	-740.71533	-10.51893	502.60516	701.40961	-12.19382	512.13849	-46.29236	1346.04456	-904.67621	
860	8.590	-832.09229	34.84821	-631.78931	737.88239	35.63581	-636.89056	-739.98328	-10.41076	502.53610	702.11072	-12.05364	511.41318	-44.90982	1345.55688	-905.69415	
861	8.600	-831.24731	33.86464	-632.02246	738.67047	35.26309	-636.81152	-739.52838	-10.14140	502.41861	702.60278	-11.92754	511.92691	-44.95221	1345.13733	-906.25745	
862	8.610	-830.61548	34.04593	-632.37946	739.42242	35.06309	-636.95636	-738.99908	-9.83111	502.29239	703.38165	-11.74483	511.70694	-44.32685	1344.70178	-906.45331	
863	8.620	-829.98212	34.18467	-632.09637	739.92859	35.01821	-637.13269	-738.16785	-9.55720	502.18851	704.15765	-11.53711	511.83353	-42.98125	1344.07251	-906.58484	
864	8.630	-828.95337	34.00697	-632.35809	740.79352	34.85687	-637.28198	-737.25562	-9.24275	502.17737	704.96625	-11.27410	511.84671	-42.43976	1343.82300	-906.53711	
865	8.640	-828.12305	33.78054	-632.19116	741.62317	34.30419	-637.36957	-736.61426	-9.12772	502.06647	705.70404	-11.01046	511.58682	-41.65416	1343.22498	-906.50024	
866	8.650	-827.46869	33.40870	-632.43341	742.48859	33.81498	-637.49152	-735.93036	-8.93923	502.05063	706.29535	-10.82856	511.57526	-41.53814	1342.79224	-906.51074	
867	8.660	-827.11017	32.89833	-632.72253	743.09796	33.61487	-637.59827	-735.09058	-8.64450	501.85431	707.45752	-10.40311	511.48294	-40.77367	1342.35376	-907.17383	
868	8.670	-826.16309	32.54677	-632.87921	743.78546	33.25086	-637.68115	-734.38019	-8.43629	501.75015	707.90161	-10.14657	511.47983	-39.59698	1341.65625	-908.07312	
869	8.680	-825.12244	32.17125	-632.87445	744.82831	32.82937	-637.79248	-733.64258	-8.04956	501.69443	708.88660	-9.79247	511.39450	-38.86318	1341.29504	-909.58521	
870	8.690	-824.50623	31.95645	-632.77972	745.68951	32.42956	-637.88873	-732.51782	-8.13421	501.61108	709.76776	-9.62681	511.33054	-37.87638	1340.79578	-911.31201	
871	8.700	-823.83301	31.40166	-632.93933	746.28430	32.32858	-638.01843	-731.82074	-7.53467	501.50314	710.38379	-9.37959	511.30231	-37.10926	1340.48889	-913.21613	
872	8.710	-822.99854	31.06051	-633.11194	747.29492	31.97404	-638.01746	-731.28748	-7.49610	501.41885	711.16425	-9.27498	511.07465	-36.28112	1340.03113	-914.51489	
873	8.720	-822.19513	30.75555	-633.30768	748.02936	31.44743	-638.19879	-730.44946	-7.24285	501.26636	712.29919	-9.15186	510.89087	-35.22133	1339.52173	-915.26794	
874	8.730	-821.10028	30.74342	-633.23840	748.93420	31.28520	-638.20673	-729.53131	-7.07456	501.29453	712.97821	-8.87243	510.95190	-34.41727	1339.26184	-916.36670	
875	8.740	-820.16998	30.43442	-633.03986	749.59149	31.10860	-638.27368	-728.61810	-6.77280	501.19745	713.62439	-8.71114	510.86102	-33.75039	1338.83740	-917.25800	
876	8.750	-819.37811	30.09239	-633.48859	750.67920	30.82084	-638.40955	-727.77515	-6.59941	500.98486	714.78058	-8.47945	510.73123	-33.27877	1338.47559	-917.74451	
877	8.760	-818.68689	29.76853	-633.59442	751.41870	30.49128	-638.54541	-726.76849	-6.34804	500.97220	715.40814	-8.28610	510.57541	-32.06500	1337.84717	-917.86902	
878	8.770	-817.71356	29.25793	-633.83069	752.32452	30.00600	-638.72571	-726.09064	-6.31764	500.87418	716.21619	-7.90263	510.56476	-30.97716	1337.30151	-917.33765	
879	8.780	-816.95453	28.97433	-633.82562	753.18970	29.67472	-638.74915	-725.01953	-5.99863	500.93582	717.27826	-7.53080	510.52618	-30.48724	1336.79297	-917.23199	
880	8.790	-815.95129	28.62369	-633.88977	753.94104	29.45481	-638.72644	-724.20166	-5.72827	500.84473	718.27679	-7.19550	510.43692	-29.65836	1336.33630	-917.39069	
881	8.800	-815.09760	28.21227	-633.84406	755.14471	29.08966	-638.89551	-723.34705	-5.36593	500.72333	718.84436	-7.01464	510.35318	-28.85827	1335.93689	-917.81042	
882	8.810	-814.37231	27.67334	-634.07440	756.08514	28.76786	-639.06250	-722.38580	-5.21977	500.56918	719.93909	-6.73723	510.24414	-28.14463	1335.28723	-918.40308	
883	8.820	-813.38977	27.16725	-634.19818	756.76428	28.34963	-639.11841	-721.51056	-4.94667	500.52206	720.80762	-6.49485	510.16025	-27.27260	1334.67175	-919.55920	
884	8.830	-812.36401	26.74859	-634.40570	757.71753	27.63073	-639.17273	-720.64722	-4.83073	500.52579	721.89600	-6.23973	510.05945	-25.80905	1334.19006	-921.03076	
885	8.840	-811.49176	26.75245	-634.40466	758.73486	27.36596	-639.40387	-719.49353	-4.52450	500.57410	722.76508	-5.91320	510.16092	-25.12908	1333.59729	-922.79492	
886	8.850	-810.66870	26.47706	-634.36615	759.50037	27.29031	-639.45221	-718.76404	-4.26366	500.42783	723.37238	-5.76191	510.14175	-23.87718	1333.20374	-924.53333	
887	8.860	-809.55737	26.09295	-634.76941	760.48260	26.79509	-639.41132	-717.80774	-3.96084	500.41168	724.76465	-5.54812	509.90558	-23.05536	1332.67725	-926.28363	
888	8.870	-808.72400	25.69777	-634.69049	761.41443	26.43718	-639.65045	-716.92169	-3.79124	500.17059	725.54327	-5.24038	509.94992	-22.55627	1332.28186	-927.22437	
889	8.880	-807.71619	25.27359	-634.75732	762.38245	26.04098	-639.78265	-715.82745	-3.52721	500.15201	726.40631	-4.95210	509.66409	-21.13755	1331.70630	-928.26831	
890	8.890	-806.79126	24.92973	-634.94147	763.25342	25.66404	-639.94556	-715.06244	-3.24664	499.99469	727.63715	-4.53904	509.64383	-20.31409	1331.14282	-929.02673	
891	8.900	-805.82086	24.49137	-635.22589	764.20709	25.31011	-640.03693	-713.96289	-3.09328	499.86319	728.34094	-4.33586	509.64264	-19.61859	1330.48694	-929.32446	
892	8.910	-805.08539	24.13287	-635.11664	765.15515	24.76055	-640.07416	-713.06372	-2.67187	499.84033	729.30505	-3.98505	509.46280	-18.34670	1330.09009	-929.43683	
893	8.920	-803.96295	23.56852	-635.06567	765.95612	24.65342	-640.30884	-712.25806	-2.43623	499.76682	730.09802	-3.76850	509.29938	-17.30874	1329.43323	-929.63129	
894	8.930	-802.74054	23.12493	-635.35071	767.13959	24.15648	-640.54675	-710.96252	-2.06648	499.68307	730.68427	-3.38839	509.32278	-16.68493	1328.64001	-929.67822	
895	8.940	-802.00757	22.87868	-635.52698	767.97266	23.80850	-640.51514	-710.30273	-1.88584	499.42548	732.19702	-3.12751	509.14569	-16.15065	1328.35535	-930.02930	
896	8.950	-801.23340	22.60544	-635.55005	768.91034	23.30727	-640.54523	-709.27460	-1.63533	499.34647	733.07513	-2.92436	508.95203	-14.77718	1327.87695	-930.70886	
897	8.960	-799.96851	22.12967	-635.51660	769.93475	22.97559	-640.76758	-708.37311	-1.22009	499.21606	733.81329	-2.68192	508.93979	-14.16905	1327.36279	-931.29669	
898	8.970	-799.21252	21.84673	-635.69861	770.85571	22.91698	-640.76715	-707.57410	-0.84817	499.07178	735.09625	-2.48178	508.77106	-13.10861	1326.72827	-932.40771	
899	8.980	-798.26373	21.46248	-636.10681	771.83319	22.59474	-640.94659	-706.56824	-0.54568	499.01996	736.01569	-2.31229	508.65662	-11.81358	1326.43066	-934.14783	
900	8.990	-797.42114	21.26887	-635.98010	772.72443	22.21648	-641.16467	-705.48419	-0.37478	498.96887	737.12738	-1.87991	508.63663	-10.82376	1325.63782	-935.28882	
901	9.000	-796.12006	20.57218	-636.00903	773.70758	21.86382	-641.13196	-704.45398	-0.11025	498.88116	737.74225	-1.57489	508.61523	-9.81948	1325.04114	-936.86884	
902	9.010	-795.39294	19.91014	-636.23517	774.78436	21.14717	-641.27881	-703.51294	0.07560	498.88043	738.92175	-1.27444	508.52554	-9.01009	1324.57983	-937.85962	
903	9.020	-794.60620	19.52020	-636.44104	775.72809	20.81207	-641.42975	-702.59595	0.31469	498.79947	739.94409	-0.91917	508.31467	-7.94637	1324.07813	-938.83282	
904	9.030	-793.34424	19.19840	-636.35596	776.59204	20.50942	-641.43713	-701.66589	0.65032	498.61285	740.38391	-0.71106	508.27591	-6.72872	1323.34644	-939.75348	
905	9.040	-792.22198	19.01519	-636.31854	777.62964	20.26932	-641.52972	-700.53107	0.93965	498.64706	741.91919	-0.34533	508.16025	-6.02971	1322.75110	-940.37769	
906	9.050	-791.48206	18.62024	-636.57159	778.67560	19.84896	-641.62244	-699.83276	1.49971	498.30713	742.57550	-0.21626	507.73514	-5.20777	1322.23145	-940.78101	
907	9.060	-790.50122	18.03170	-636.93750	779.60767	19.29757	-641.67163	-698.41473	1.19821	498.31284	743.93036	0.27527	508.06989	-4.12347	1321.78308	-941.36444	
908	9.070	-789.46179	17.62680	-636.76593	780.62250	18.99871	-641.81232	-697.57196	1.51868	498.23364	744.94586	0.57034	507.90741	-3.49987	1321.12964	-941.67004	
909	9.080	-788.50684	17.27889	-636.94415	781.54382	18.57340	-641.97003	-696.71460	1.78598	498.20233	745.57520	0.66627	507.82449	-2.33812	1320.47852	-942.30237	
910	9.090	-787.68213	17.08537	-637.12573	782.49005	18.27891	-642.01971	-695.64148	1.81431	498.14471	746.65961	0.88724	507.88477	-1.26219	1319.94653	-943.05219	
911	9.100	-786.64777	16.62149	-637.38727	783.58881	18.11273	-642.13281	-694.61072	2.31218	498.21237	748.25598	1.58956	508.14001	-0.47187	1319.45520	-944.19385	
912	9.110	-785.65875	16.26499	-637.10114	784.36090	17.56842	-642.25146	-693.64087	2.45722	497.98843	747.95251	1.25418	506.91455	0.78775	1319.02026	-945.43665	
913	9.120	-784.61835	16.03553	-637.31317	785.32202	17.28742	-642.28888	-692.68286	2.74147	497.74719	749.41742	1.90033	506.88138	1.66877	1318.36780	-946.26117	
914	9.130	-783.70978	15.65694	-637.50018	786.25305	16.84374	-642.60583	-691.89294	2.88175	497.69431	750.40637	2.09483	506.75067	2.12039	1317.90051	-947.62903	
915	9.140	-782.85266	15.13824	-637.65662	787.20331	16.34893	-642.51715	-690.92407	3.14159	497.67807	751.01050	2.27540	506.76047	3.26338	1317.41040	-948.64288	
916	9.150	-781.81763	14.61172	-637.57892	788.02557	16.08563	-642.58862	-689.77942	3.37647	497.71216	752.28058	2.72060	506.59967	4.40159	1316.91028	-949.27692	
917	9.160	-781.01855	14.17364	-637.54376	789.22095	15.66274	-642.75299	-689.13708	3.80141	497.50183	753.07916	2.82063	506.51987	5.27272	1316.39868	-949.84662	
918	9.170	-780.00659	13.79211	-637.84985	790.10052	15.26013	-642.88580	-688.02087	4.13116	497.36551	754.07660	3.10095	506.45724	6.18089	1315.54272	-950.90039	
